<?xml version="1.0" encoding="utf-8"?>
<!-- Svg Vector Icons : http://www.onlinewebfonts.com/icon -->
<!DOCTYPE svg PUBLIC "-//W3C//DTD SVG 1.1//EN" "http://www.w3.org/Graphics/SVG/1.1/DTD/svg11.dtd">
<svg version="1.1" xmlns="http://www.w3.org/2000/svg" xmlns:xlink="http://www.w3.org/1999/xlink" x="0px" y="0px" viewBox="0 0 256 256" enable-background="new 0 0 256 256" xml:space="preserve">
<metadata> Svg Vector Icons : http://www.onlinewebfonts.com/icon </metadata>
<g><g><g><path fill="#000000" d="M115.5,10.5c-31.3,4.6-49,20.6-57.7,52.2c-2.4,8.8-4.1,18.5-6.5,37.5c-3.1,24.5-5.1,34.4-8.7,43.1c-2.9,7-5.3,10.8-10.8,16.7c-7.5,8.2-9.4,16.6-5.6,24.7c5.5,11.8,24.6,19.5,57.3,23.1l8.2,0.9l0.4,4.3c1.5,18.7,17,32.9,35.8,32.9c5.9,0,10.1-0.9,15.1-3.3c11.8-5.4,19.8-16.8,20.7-29.6c0.4-4.8-0.5-4.3,8.6-5.1c18.9-1.8,37.2-6.5,47-12.2c4.5-2.6,9.2-7.4,11.1-11.2c1.3-2.8,1.5-3.6,1.5-8c0-4.6-0.1-5.1-1.9-8.7c-1.2-2.4-3.3-5.4-5.6-8c-4.8-5.3-7.8-10-10.3-15.9c-3.9-9.3-6.1-19.4-8.9-42.6c-3-24.1-4.9-34-8.3-44.3c-4.2-12.5-9.3-21.3-17.1-28.9c-9.4-9.2-20-14.3-36.2-17.3C137.7,9.9,121.6,9.7,115.5,10.5z M142.8,33.2c18.9,3.9,28.9,14.2,34.6,35.8c2.2,8.5,3.3,15.3,5.6,33.5c1,7.9,2.3,17.3,2.9,20.8c3.9,23.4,10.1,38.3,20.7,49.8l3,3.3l-2.3,1.2c-7.8,4.1-24.6,7.4-47.7,9.5c-11.7,1-53.6,0.9-65.7-0.3c-16.1-1.5-28.8-3.7-37.5-6.3c-4.3-1.3-9.2-3.5-9.2-4.1c0-0.2,1.4-2,3.1-3.9c12.6-14.6,18-30.4,22.3-65.1c2.9-23.2,4.7-33.6,7.2-42c4.9-16.1,12.6-25.3,25.3-29.9C115.7,31.6,130.6,30.7,142.8,33.2z M129,210.1h18.4l-0.3,2.3c-0.9,6.6-5,12.4-11,15.3c-3.1,1.5-3.8,1.7-8.3,1.7c-4.3,0-5.2-0.2-8.1-1.5c-6-2.7-10.7-9.2-11.3-15.6c-0.3-2.9-0.3-2.9,0.9-2.6C110,209.9,118.9,210.1,129,210.1z"/></g></g></g>
</svg>