<svg xmlns="http://www.w3.org/2000/svg" xmlns:xlink="http://www.w3.org/1999/xlink" width="18" height="24" viewBox="0 0 18 24"><defs><path id="a" d="M8.158 8.892c0-2.088 1.724-3.792 3.848-3.792 2.112 0 3.836 1.704 3.836 3.792 0 2.1-1.724 3.804-3.836 3.804-2.124 0-3.848-1.704-3.848-3.804M3 8.892c0 1.896.607 3.66 1.626 5.1L12.006 24l7.198-9.78A8.77 8.77 0 0 0 21 8.892C21 3.996 16.97 0 12.006 0S3 3.996 3 8.892"/><path id="b" d="M2.71 11h.674a.4.4 0 0 0 .33-.172l3.142-4.182 3.448-.358q.102-.014.534-.401a.577.577 0 0 0 0-.802q-.432-.387-.534-.401l-3.448-.358L3.726.172A.41.41 0 0 0 3.397 0h-.674l1.412 4.54-2.684.187L.445 3.695Q.407 3.653 0 3.624l.573 1.89L0 7.376q.382-.029.432-.071l1.005-1.031 2.684.186z"/></defs><g fill="none" fill-rule="evenodd"><path fill="#0C2340" d="M4 3h9v12H4z"/><use xlink:href="#a" fill="#024" transform="translate(-3)"/><use xlink:href="#b" fill="#FFF" transform="translate(4 3)"/></g></svg>