<svg xmlns="http://www.w3.org/2000/svg" viewBox="0 0 153.36 129.14"><defs><clipPath id="a"><path d="M0 3.21h113V92H0z" style="fill:none"/></clipPath><clipPath id="b" transform="translate(20.18 16.96)"><path d="M36.32 92h6.31l25.98-40.36H46.79z" style="fill:none;clip-path:url(#a);clip-rule:evenodd"/></clipPath><clipPath id="c" transform="translate(20.18 16.96)"><path d="M36.32 3.21h6.31l25.98 40.36H46.79z" style="fill:none;clip-path:url(#a);clip-rule:evenodd"/></clipPath><clipPath id="d" transform="translate(20.18 16.96)"><path d="M23.68 44.15 6.46 31.24H0l10.76 16.14L0 63.53h6.46l17.22-12.92h8.61l-4.31-3.23 4.31-3.23z" style="fill:none;clip-path:url(#a);clip-rule:evenodd"/></clipPath><clipPath id="e" transform="translate(20.18 16.96)"><path d="M40.36 35.5h40.36v4.04H40.36z" style="fill:none"/></clipPath><clipPath id="f" transform="translate(20.18 16.96)"><path d="M40.36 55.68h40.36v4.04H40.36z" style="fill:none"/></clipPath><clipPath id="g" transform="translate(20.18 16.96)"><path d="M12.11 39.54h92.82a8.07 8.07 0 0 1 8.07 8.07 8.07 8.07 0 0 1-8.07 8.07H12.11z" style="fill:none;clip-path:url(#a);clip-rule:evenodd"/></clipPath></defs><g style="clip-path:url(#b)"><path d="M36.32 48.43h72.64v80.71H36.32z" style="fill:#001b45"/></g><g style="clip-path:url(#c)"><path d="M36.32 0h72.64v80.71H36.32z" style="fill:#001b45"/></g><g style="clip-path:url(#d)"><path d="M0 28.03h72.64v72.64H0z" style="fill:#001b45"/></g><g style="clip-path:url(#e)"><path d="M40.36 32.29h80.71v44.39H40.36z" style="fill:#fff"/></g><g style="clip-path:url(#f)"><path d="M40.36 52.46h80.71v44.39H40.36z" style="fill:#fff"/></g><g style="clip-path:url(#g)"><path d="M12.11 36.32h141.25v56.5H12.11z" style="fill:#001b45"/></g></svg>